<svg width="170" height="160" xmlns="http://www.w3.org/2000/svg">
 <!-- Created with Method Draw - http://github.com/duopixel/Method-Draw/ -->
 <g>
  <title>background</title>
  <rect fill="#fff" id="canvas_background" height="162" width="172" y="-1" x="-1"/>
  <g display="none" overflow="visible" y="0" x="0" height="100%" width="100%" id="canvasGrid">
   <rect fill="url(#gridpattern)" stroke-width="0" y="0" x="0" height="100%" width="100%"/>
  </g>
 </g>
 <g>
  <title>Layer 1</title>
  <path id="svg_6" d="m96.89248,105.7774l-4.65085,-15.30687c1.36297,-1.12426 2.64226,-2.32723 3.84981,-3.61451l16.26602,4.37339c1.71567,-2.34971 3.19223,-4.84558 4.51336,-7.43701l-12.10537,-11.0178c0.57986,-1.61894 1.08201,-3.26599 1.44069,-4.96363l16.31385,-3.84499c0.11956,-1.41657 0.23314,-2.83877 0.23314,-4.28907s-0.11956,-2.86688 -0.23314,-4.28345l-16.31385,-3.84499c-0.36466,-1.69764 -0.8668,-3.34469 -1.44069,-4.96363l12.11134,-11.0178c-1.32711,-2.58581 -2.80366,-5.0873 -4.51934,-7.43701l-16.26602,4.36777c-1.20157,-1.28166 -2.48683,-2.48463 -3.84981,-3.61451l4.65085,-15.30124c-2.49879,-1.6077 -5.15898,-3.00179 -7.91482,-4.2441l-11.7168,11.3888c-1.71567,-0.54527 -3.47319,-1.01184 -5.27854,-1.35474l-4.08295,-15.34622c-1.51242,-0.10681 -3.01887,-0.21923 -4.56118,-0.21923s-3.04876,0.11243 -4.5552,0.21923l-4.08892,15.34622c-1.80534,0.3429 -3.55689,0.80947 -5.27854,1.35474l-11.7168,-11.3888c-2.74986,1.25918 -5.40407,2.64764 -7.90286,4.26096l4.65085,15.30124c-1.36297,1.12426 -2.64824,2.33285 -3.84383,3.60889l-16.272,-4.37339c-1.71567,2.34971 -3.19223,4.8512 -4.51336,7.44263l12.11134,11.0178c-0.57388,1.61894 -1.07603,3.26599 -1.44069,4.96363l-16.31983,3.84499c-0.11358,1.41657 -0.23314,2.83877 -0.23314,4.28345s0.11956,2.86688 0.23314,4.28907l16.31983,3.84499c0.36466,1.69764 0.8668,3.34469 1.44069,4.96363l-12.11134,11.0178c1.32113,2.58581 2.79768,5.0873 4.51336,7.43701l16.272,-4.37339c1.19559,1.28728 2.48085,2.48463 3.84383,3.61451l-4.65085,15.30687c2.49879,1.6077 5.15898,2.99617 7.90884,4.2441l11.7168,-11.3888c1.72165,0.54527 3.47319,1.01746 5.27854,1.35474l4.08892,15.34059c1.50645,0.11243 3.01887,0.21923 4.56118,0.21923s3.04876,-0.11243 4.56118,-0.21923l4.08295,-15.34059c1.80534,-0.3429 3.56286,-0.81509 5.27854,-1.35474l11.7168,11.3888c2.74388,-1.25918 5.40407,-2.64764 7.90286,-4.25534zm-33.5483,-26.98798c-11.22063,0 -20.31908,-8.55566 -20.31908,-19.10688s9.09845,-19.10126 20.31908,-19.10126s20.3131,8.55003 20.3131,19.10126s-9.09247,19.10688 -20.3131,19.10688zm92.61053,39.93951c0.11358,-3.07486 -0.35868,-6.20594 -1.37493,-9.29767l7.43658,-9.96661c-1.12386,-1.96746 -2.39118,-3.83374 -3.83187,-5.53138l-12.68523,2.50149c-2.55857,-2.04616 -5.46983,-3.64262 -8.58435,-4.78375l-3.65253,-11.68673c-2.30749,-0.38225 -4.64487,-0.59024 -7.01215,-0.59586l-5.82253,10.88288c-1.66785,0.30355 -3.3357,0.71953 -4.97366,1.30977c-1.53634,0.55089 -2.97105,1.23669 -4.34598,1.98433l-11.99178,-4.60386c-1.77545,1.47279 -3.39548,3.06362 -4.86008,4.78937l5.42201,11.06277c-1.54829,2.78256 -2.61237,5.77872 -3.10256,8.9098l-11.30432,5.9586c0.11358,2.18107 0.45432,4.36215 0.98039,6.54884l12.57762,2.91747c1.38091,2.94557 3.23408,5.58197 5.47581,7.8305l-2.10424,12.01839c1.91295,1.2929 3.94545,2.40593 6.05567,3.37279l10.2522,-7.42015c3.20419,0.79261 6.55782,1.09616 9.93537,0.8432l8.68,9.03347c1.19559,-0.32042 2.38521,-0.66332 3.56286,-1.08492c1.04614,-0.37101 2.03251,-0.80947 3.01887,-1.25356l0.22118,-12.17017c2.71997,-1.90563 5.03942,-4.19913 6.88661,-6.77932l12.91837,-0.75326c0.90865,-2.01806 1.66785,-4.11481 2.19989,-6.26778l-9.97721,-7.76867zm-24.88624,11.282c-7.17953,2.57457 -15.2139,-0.80947 -17.95779,-7.56068s0.85485,-14.31189 8.03438,-16.89208c7.17953,-2.57457 15.22586,0.80947 17.96974,7.56068c2.7379,6.75121 -0.8668,14.31189 -8.04633,16.89208z" stroke-width="1.5" stroke="#eee" fill="#ffffff"/>
 </g>
</svg>